# xmcd CD database file
#
# Track frame offsets:
#	150
#	19051
#	42893
#	58371
#	75315
#	93724
#	123038
#	138293
#	158818
#	181049
#	196592
#	219764
#	234182
#
# Disc length: 3365 seconds
#
# Revision: 0
# Processed by: cddbd v1.5.2PL0 Copyright (c) Steve Scherf et al.
# Submitted via: CDex 1.77
#
DISCID=960d230d
DTITLE=Jamie Cullum - Pointless Nostalgic
DYEAR=2002
DGENRE=Jazz
TTITLE0=You And The Night And The Mus
TTITLE1=I Can`t Get Started
TTITLE2=Devil May Care
TTITLE3=You`re Nobody Till Somebody L
TTITLE4=Pointless Nostalgic
TTITLE5=In The Wee Small Hours Of The
TTITLE6=Well You Needn`t
TTITLE7=It Ain`t Neccessarily So
TTITLE8=High And Dry
TTITLE9=Too Close For Comfort
TTITLE10=A Time For Love
TTITLE11=Lookin` Good
TTITLE12=I Want To Be A Popstarr
EXTD=YEAR: 2002
EXTT0=
EXTT1=
EXTT2=
EXTT3=
EXTT4=
EXTT5=
EXTT6=
EXTT7=
EXTT8=
EXTT9=
EXTT10=
EXTT11=
EXTT12=
PLAYORDER=
